<?xml version="1.0" encoding="UTF-8" standalone="no"?>
<svg width="161px" height="800px" viewBox="0 0 161 800" version="1.1" xmlns="http://www.w3.org/2000/svg" xmlns:xlink="http://www.w3.org/1999/xlink" xmlns:sketch="http://www.bohemiancoding.com/sketch/ns">
    <!-- Generator: Sketch 3.5.2 (25235) - http://www.bohemiancoding.com/sketch -->
    <title>sol-sprite</title>
    <desc>Created with Sketch.</desc>
    <defs></defs>
    <g id="Page-1" stroke="none" stroke-width="1" fill="none" fill-rule="evenodd" sketch:type="MSPage">
        <g id="sol-sprite" sketch:type="MSArtboardGroup">
            <path d="M122.8,14.2 L120,26 L110.8,26 L113.2,15.7 C113.3,15.1 113.4,14.6 113.4,14.3 C113.4,13.4 112.6,12.9 111.1,12.9 C109.3,12.9 108.1,13.8 107.7,15.6 L105.4,26 L96.4,26 L100.5,9 L108.9,9 L108.2,11.7 C109.6,9.5 112.3,8.3 116.1,8.3 C120.2,8.3 123,10 123,12.5 C123,13.1 122.9,13.6 122.8,14.2 L122.8,14.2 L122.8,14.2 Z M95.4,2 L95.2,3 L98,3 L97.7,4 L94.9,4 L94.7,5 L98.2,5 L97.8,7 L92,7 L93.3,1 L98.9,1 L98.6,2 L95.4,2 L95.4,2 Z M88.4,7 L88.9,4 L86.8,4 L86.3,7 L84,7 L85.3,1 L87.6,1 L87.1,3 L89.1,3 L89.6,1 L91.9,1 L90.6,7 L88.4,7 L88.4,7 Z M82.6,2 L81.6,7 L79.3,7 L80.3,2 L78.6,2 L78.9,1 L84.6,1 L84.3,2 L82.6,2 L82.6,2 Z M80.4,18.8 C80.1,20 80.1,20.2 80.1,20.4 C80.1,21.2 80.7,21.7 81.8,21.7 C83.9,21.7 85.2,20.3 85.9,17.4 L87.9,8.9 L97.1,8.9 L93.1,25.9 L84.4,25.9 L85.2,22.8 C82.9,25.5 80.7,26.6 77,26.6 C73.4,26.6 70.5,24.9 70.5,22.6 C70.5,22 70.7,21 71,19.7 L73.5,9 L82.8,9 L80.4,18.8 L80.4,18.8 Z M56.3,5.6 C54.2,5.6 52.9,6.3 52.9,7.3 C52.9,8 53.4,8.4 54.6,8.8 C55.1,9 55.6,9.1 56.2,9.3 L58.2,9.8 L60.2,10.3 L62.2,10.8 C66.6,11.9 69.5,14.7 69.5,17.6 C69.5,22.9 63.1,26.6 53.9,26.6 C45.2,26.6 39.6,24.2 37,19.4 L47.3,18 C48.4,19.9 50.3,20.7 54.1,20.7 C56.5,20.7 58.1,19.9 58.1,18.8 C58.1,18.3 57.6,17.8 56.8,17.4 C56.6,17.3 56.5,17.3 56.4,17.2 L54,16.6 L51.7,16 L49.3,15.4 C43.9,14 41.3,11.8 41.3,8.4 C41.3,3.2 46.9,0 56,0 C63.6,0 69,2.3 71,6.4 L61.8,8.1 C61.2,6.5 59.1,5.6 56.3,5.6 L56.3,5.6 L56.3,5.6 Z" id="sunlogo-wh1" fill="#FFFFFF" sketch:type="MSShapeGroup"></path>
            <path d="M139.72093,69.8139535 L135.813953,86.2790698 L122.976744,86.2790698 L126.325581,71.9069767 C126.465116,71.0697674 126.604651,70.372093 126.604651,69.9534884 C126.604651,68.6976744 125.488372,68 123.395349,68 C120.883721,68 119.209302,69.255814 118.651163,71.7674419 L115.44186,86.2790698 L102.883721,86.2790698 L108.604651,62.5581395 L120.325581,62.5581395 L119.348837,66.3255814 C121.302326,63.255814 125.069767,61.5813953 130.372093,61.5813953 C136.093023,61.5813953 140,63.9534884 140,67.4418605 C140,68.2790698 139.860465,68.9767442 139.72093,69.8139535 L139.72093,69.8139535 L139.72093,69.8139535 Z M101.488372,52.7906977 L101.209302,54.1860465 L105.116279,54.1860465 L104.697674,55.5813953 L100.790698,55.5813953 L100.511628,56.9767442 L105.395349,56.9767442 L104.837209,59.7674419 L96.744186,59.7674419 L98.5581395,51.3953488 L106.372093,51.3953488 L105.953488,52.7906977 L101.488372,52.7906977 L101.488372,52.7906977 Z M91.7209302,59.7674419 L92.4186047,55.5813953 L89.4883721,55.5813953 L88.7906977,59.7674419 L85.5813953,59.7674419 L87.3953488,51.3953488 L90.6046512,51.3953488 L89.9069767,54.1860465 L92.6976744,54.1860465 L93.3953488,51.3953488 L96.6046512,51.3953488 L94.7906977,59.7674419 L91.7209302,59.7674419 L91.7209302,59.7674419 Z M83.627907,52.7906977 L82.2325581,59.7674419 L79.0232558,59.7674419 L80.4186047,52.7906977 L78.0465116,52.7906977 L78.4651163,51.3953488 L86.4186047,51.3953488 L86,52.7906977 L83.627907,52.7906977 L83.627907,52.7906977 Z M80.5581395,76.2325581 C80.1395349,77.9069767 80.1395349,78.1860465 80.1395349,78.4651163 C80.1395349,79.5813953 80.9767442,80.2790698 82.5116279,80.2790698 C85.4418605,80.2790698 87.255814,78.3255814 88.2325581,74.2790698 L91.0232558,62.4186047 L103.860465,62.4186047 L98.2790698,86.1395349 L86.1395349,86.1395349 L87.255814,81.8139535 C84.0465116,85.5813953 80.9767442,87.1162791 75.8139535,87.1162791 C70.7906977,87.1162791 66.744186,84.744186 66.744186,81.5348837 C66.744186,80.6976744 67.0232558,79.3023256 67.4418605,77.4883721 L70.9302326,62.5581395 L83.9069767,62.5581395 L80.5581395,76.2325581 L80.5581395,76.2325581 Z M46.9302326,57.8139535 C44,57.8139535 42.1860465,58.7906977 42.1860465,60.1860465 C42.1860465,61.1627907 42.8837209,61.7209302 44.5581395,62.2790698 C45.255814,62.5581395 45.9534884,62.6976744 46.7906977,62.9767442 L49.5813953,63.6744186 L52.372093,64.372093 L55.1627907,65.0697674 C61.3023256,66.6046512 65.3488372,70.5116279 65.3488372,74.5581395 C65.3488372,81.9534884 56.4186047,87.1162791 43.5813953,87.1162791 C31.4418605,87.1162791 23.627907,83.7674419 20,77.0697674 L34.372093,75.1162791 C35.9069767,77.7674419 38.5581395,78.8837209 43.8604651,78.8837209 C47.2093023,78.8837209 49.4418605,77.7674419 49.4418605,76.2325581 C49.4418605,75.5348837 48.744186,74.8372093 47.627907,74.2790698 C47.3488372,74.1395349 47.2093023,74.1395349 47.0697674,74 L43.7209302,73.1627907 L40.5116279,72.3255814 L37.1627907,71.4883721 C29.627907,69.5348837 26,66.4651163 26,61.7209302 C26,54.4651163 33.8139535,50 46.5116279,50 C57.1162791,50 64.6511628,53.2093023 67.4418605,58.9302326 L54.6046512,61.3023256 C53.7674419,59.0697674 50.8372093,57.8139535 46.9302326,57.8139535 L46.9302326,57.8139535 L46.9302326,57.8139535 Z" id="sunlogo-wh1-copy" fill="#FFFFFF" sketch:type="MSShapeGroup"></path>
            <path d="M154.651163,134.767442 L149.767442,155.348837 L133.72093,155.348837 L137.906977,137.383721 C138.081395,136.337209 138.255814,135.465116 138.255814,134.94186 C138.255814,133.372093 136.860465,132.5 134.244186,132.5 C131.104651,132.5 129.011628,134.069767 128.313953,137.209302 L124.302326,155.348837 L108.604651,155.348837 L115.755814,125.697674 L130.406977,125.697674 L129.186047,130.406977 C131.627907,126.569767 136.337209,124.476744 142.965116,124.476744 C150.116279,124.476744 155,127.44186 155,131.802326 C155,132.848837 154.825581,133.72093 154.651163,134.767442 L154.651163,134.767442 L154.651163,134.767442 Z M106.860465,113.488372 L106.511628,115.232558 L111.395349,115.232558 L110.872093,116.976744 L105.988372,116.976744 L105.639535,118.72093 L111.744186,118.72093 L111.046512,122.209302 L100.930233,122.209302 L103.197674,111.744186 L112.965116,111.744186 L112.44186,113.488372 L106.860465,113.488372 L106.860465,113.488372 Z M94.6511628,122.209302 L95.5232558,116.976744 L91.8604651,116.976744 L90.9883721,122.209302 L86.9767442,122.209302 L89.244186,111.744186 L93.255814,111.744186 L92.3837209,115.232558 L95.872093,115.232558 L96.744186,111.744186 L100.755814,111.744186 L98.4883721,122.209302 L94.6511628,122.209302 L94.6511628,122.209302 Z M84.5348837,113.488372 L82.7906977,122.209302 L78.7790698,122.209302 L80.5232558,113.488372 L77.5581395,113.488372 L78.0813953,111.744186 L88.0232558,111.744186 L87.5,113.488372 L84.5348837,113.488372 L84.5348837,113.488372 Z M80.6976744,142.790698 C80.1744186,144.883721 80.1744186,145.232558 80.1744186,145.581395 C80.1744186,146.976744 81.2209302,147.848837 83.1395349,147.848837 C86.8023256,147.848837 89.0697674,145.406977 90.2906977,140.348837 L93.7790698,125.523256 L109.825581,125.523256 L102.848837,155.174419 L87.6744186,155.174419 L89.0697674,149.767442 C85.0581395,154.476744 81.2209302,156.395349 74.7674419,156.395349 C68.4883721,156.395349 63.4302326,153.430233 63.4302326,149.418605 C63.4302326,148.372093 63.7790698,146.627907 64.3023256,144.360465 L68.6627907,125.697674 L84.8837209,125.697674 L80.6976744,142.790698 L80.6976744,142.790698 Z M38.6627907,119.767442 C35,119.767442 32.7325581,120.988372 32.7325581,122.732558 C32.7325581,123.953488 33.6046512,124.651163 35.6976744,125.348837 C36.5697674,125.697674 37.4418605,125.872093 38.4883721,126.22093 L41.9767442,127.093023 L45.4651163,127.965116 L48.9534884,128.837209 C56.627907,130.755814 61.6860465,135.639535 61.6860465,140.697674 C61.6860465,149.94186 50.5232558,156.395349 34.4767442,156.395349 C19.3023256,156.395349 9.53488372,152.209302 5,143.837209 L22.9651163,141.395349 C24.8837209,144.709302 28.1976744,146.104651 34.8255814,146.104651 C39.0116279,146.104651 41.8023256,144.709302 41.8023256,142.790698 C41.8023256,141.918605 40.9302326,141.046512 39.5348837,140.348837 C39.1860465,140.174419 39.0116279,140.174419 38.8372093,140 L34.6511628,138.953488 L30.6395349,137.906977 L26.4534884,136.860465 C17.0348837,134.418605 12.5,130.581395 12.5,124.651163 C12.5,115.581395 22.2674419,110 38.1395349,110 C51.3953488,110 60.8139535,114.011628 64.3023256,121.162791 L48.255814,124.127907 C47.2093023,121.337209 43.5465116,119.767442 38.6627907,119.767442 L38.6627907,119.767442 L38.6627907,119.767442 Z" id="sunlogo-wh1-copy-2" fill="#FFFFFF" sketch:type="MSShapeGroup"></path>
            <g id="arrow-circle-bottom" sketch:type="MSLayerGroup" transform="translate(56.000000, 175.000000)" fill="#FFFFFF">
                <path d="M23.8604651,0 C10.6775581,0 0,10.6775581 0,23.8604651 C0,37.0433721 10.6775581,47.7209302 23.8604651,47.7209302 C37.0433721,47.7209302 47.7209302,37.0433721 47.7209302,23.8604651 C47.7209302,10.6775581 37.0433721,0 23.8604651,0 L23.8604651,0 Z M17.8953488,5.96511628 L29.8255814,5.96511628 L29.8255814,23.8604651 L41.755814,23.8604651 L23.8604651,41.755814 L5.96511628,23.8604651 L17.8953488,23.8604651 L17.8953488,5.96511628 L17.8953488,5.96511628 Z" id="Shape" sketch:type="MSShapeGroup"></path>
            </g>
            <g id="arrow-circle-bottom-copy" sketch:type="MSLayerGroup" transform="translate(81.000000, 253.000000) scale(1, -1) translate(-81.000000, -253.000000) translate(63.000000, 235.000000)" fill="#E92129">
                <path d="M17.8953488,0 C8.0081686,0 0,8.0081686 0,17.8953488 C0,27.7825291 8.0081686,35.7906977 17.8953488,35.7906977 C27.7825291,35.7906977 35.7906977,27.7825291 35.7906977,17.8953488 C35.7906977,8.0081686 27.7825291,0 17.8953488,0 L17.8953488,0 Z M13.4215116,4.47383721 L22.369186,4.47383721 L22.369186,17.8953488 L31.3168605,17.8953488 L17.8953488,31.3168605 L4.47383721,17.8953488 L13.4215116,17.8953488 L13.4215116,4.47383721 L13.4215116,4.47383721 Z" id="Shape" sketch:type="MSShapeGroup"></path>
            </g>
            <circle id="Oval-1" fill="#E92129" sketch:type="MSShapeGroup" cx="81" cy="305" r="5"></circle>
        </g>
    </g>
</svg>